<svg id="svg2" xmlns:rdf="http://www.w3.org/1999/02/22-rdf-syntax-ns#" xmlns="http://www.w3.org/2000/svg" xmlns:ns0="http://www.iki.fi/pav/software/textext/" viewBox="0 0 922.17822 828.0968" height="233.71mm" width="260.26mm" version="1.1" xmlns:cc="http://creativecommons.org/ns#" xmlns:xlink="http://www.w3.org/1999/xlink" xmlns:dc="http://purl.org/dc/elements/1.1/">
 <defs>
  <marker id="Arrow2Mstart" refY="0" refX="0" style="overflow:visible" orient="auto">
   <path id="path9597" style="stroke-linejoin:round;fill-rule:evenodd;stroke:#000;stroke-width:.625" transform="scale(.6)" d="m8.7186 4.0337-10.926-4.0177 10.926-4.0177c-1.7455 2.3721-1.7354 5.6175-6e-7 8.0354z"/>
  </marker>
  <marker id="Arrow2Mend" refY="0" refX="0" style="overflow:visible" orient="auto">
   <path id="path4171" style="stroke-linejoin:round;fill-rule:evenodd;stroke:#000;stroke-width:.625" transform="scale(-.6)" d="m8.7186 4.0337-10.926-4.0177 10.926-4.0177c-1.7455 2.3721-1.7354 5.6175-6e-7 8.0354z"/>
  </marker>
  <marker id="Arrow2Mend-3" refY="0" refX="0" style="overflow:visible" orient="auto">
   <path id="path4171-6" d="m8.7186 4.0337-10.926-4.0177 10.926-4.0177c-1.7455 2.3721-1.7354 5.6175-6e-7 8.0354z" style="stroke-linejoin:round;fill-rule:evenodd;stroke:#000;stroke-width:.625" transform="scale(-.6)"/>
  </marker>
  <marker id="Arrow2Mstart-7" refY="0" refX="0" style="overflow:visible" orient="auto">
   <path id="path9597-3" style="stroke-linejoin:round;fill-rule:evenodd;stroke:#000;stroke-width:.625" transform="scale(.6)" d="m8.7186 4.0337-10.926-4.0177 10.926-4.0177c-1.7455 2.3721-1.7354 5.6175-6e-7 8.0354z"/>
  </marker>
  <marker id="Arrow2Mstart-2" refY="0" refX="0" style="overflow:visible" orient="auto">
   <path id="path9597-7" d="m8.7186 4.0337-10.926-4.0177 10.926-4.0177c-1.7455 2.3721-1.7354 5.6175-6e-7 8.0354z" style="stroke-linejoin:round;fill-rule:evenodd;stroke:#000;stroke-width:.625" transform="scale(.6)"/>
  </marker>
  <marker id="Arrow2Mstart-2-6" refY="0" refX="0" style="overflow:visible" orient="auto">
   <path id="path9597-7-3" d="m8.7186 4.0337-10.926-4.0177 10.926-4.0177c-1.7455 2.3721-1.7354 5.6175-6e-7 8.0354z" style="stroke-linejoin:round;fill-rule:evenodd;stroke:#000;stroke-width:.625" transform="scale(.6)"/>
  </marker>
  <linearGradient id="linearGradient9473" y2="214.86" gradientUnits="userSpaceOnUse" x2="362.5" y1="314.86" x1="362.5">
   <stop id="stop9469" style="stop-color:#1f988b" offset="0"/>
   <stop id="stop9471" style="stop-color:#1f988b;stop-opacity:0" offset="1"/>
  </linearGradient>
  <g id="g4205">
   <symbol id="textext-c459cdf6-1" overflow="visible">
    <path id="path4211" d="m3.3281-3.0156c0.0625-0.25 0.2969-1.1719 0.9844-1.1719 0.046875 0 0.29688 0 0.5 0.125-0.2813 0.0625-0.4687 0.2969-0.4687 0.5469 0 0.15625 0.10938 0.34375 0.375 0.34375 0.21875 0 0.53125-0.17188 0.53125-0.57812 0-0.51562-0.57812-0.65625-0.92188-0.65625-0.57812 0-0.92188 0.53125-1.0469 0.75-0.25-0.65625-0.78125-0.75-1.0781-0.75-1.0312 0-1.6094 1.2812-1.6094 1.5312 0 0.10938 0.10938 0.10938 0.125 0.10938 0.078125 0 0.10938-0.03125 0.125-0.10938 0.34375-1.0625 1-1.3125 1.3438-1.3125 0.1875 0 0.53125 0.09375 0.53125 0.67188 0 0.3125-0.17188 0.96875-0.53125 2.375-0.15625 0.60938-0.51562 1.0312-0.95312 1.0312-0.0625 0-0.28125 0-0.5-0.125 0.25-0.0625 0.46875-0.26562 0.46875-0.54688 0-0.26562-0.21875-0.34375-0.35938-0.34375-0.3125 0-0.54688 0.25-0.54688 0.57812 0 0.45312 0.48438 0.65625 0.92188 0.65625 0.67188 0 1.0312-0.70312 1.0469-0.75 0.125 0.35938 0.48438 0.75 1.0781 0.75 1.0312 0 1.5938-1.2812 1.5938-1.5312 0-0.10938-0.078125-0.10938-0.10938-0.10938-0.09375 0-0.10938 0.046875-0.14062 0.10938-0.32812 1.0781-1 1.3125-1.3125 1.3125-0.39062 0-0.54688-0.3125-0.54688-0.65625 0-0.21875 0.046875-0.4375 0.15625-0.875z"/>
   </symbol>
  </g>
  <g id="g4328">
   <symbol id="textext-ba034657-1" overflow="visible">
    <path id="path4334" d="m2.0469-3.9844h0.9375c0.20312 0 0.3125 0 0.3125-0.20312 0-0.10938-0.10938-0.10938-0.28125-0.10938h-0.875c0.3594-1.4219 0.4063-1.6093 0.4063-1.6719 0-0.17188-0.125-0.26562-0.29688-0.26562-0.03125 0-0.3125 0-0.39062 0.35938l-0.39062 1.5781h-0.9375c-0.20312 0-0.29688 0-0.29688 0.1875 0 0.125 0.078125 0.125 0.28125 0.125h0.875c-0.71882 2.8282-0.7657 3-0.7657 3.1719 0 0.54688 0.375 0.92188 0.9219 0.92188 1.0156 0 1.5781-1.4532 1.5781-1.5313 0-0.1093-0.0781-0.1093-0.1094-0.1093-0.0937 0-0.1094 0.0312-0.1562 0.1406-0.4219 1.0468-0.9532 1.2812-1.2969 1.2812-0.20312 0-0.3125-0.125-0.3125-0.45312 0-0.25 0.03125-0.3125 0.0625-0.48438z"/>
   </symbol>
  </g>
  <g id="g4453">
   <symbol id="textext-7008435c-1" overflow="visible">
    <path id="path4459" d="m4.5781-3.1875c0-0.79688-0.046875-1.5938-0.39062-2.3281-0.45312-0.96875-1.2812-1.125-1.6875-1.125-0.60938 0-1.3281 0.26562-1.75 1.1875-0.3125 0.6875-0.35938 1.4688-0.35938 2.2656 0 0.75 0.03125 1.6406 0.45312 2.4062 0.42188 0.79688 1.1562 1 1.6406 1 0.53125 0 1.2969-0.20312 1.7344-1.1562 0.3125-0.6875 0.35938-1.4688 0.35938-2.25zm-2.0937 3.1875c-0.3906 0-0.9844-0.25-1.1563-1.2031-0.1093-0.5938-0.1093-1.5157-0.1093-2.1094 0-0.64062 0-1.2969 0.078125-1.8281 0.1875-1.1875 0.9375-1.2812 1.1875-1.2812 0.32812 0 0.98438 0.1875 1.1719 1.1719 0.10938 0.5625 0.10938 1.3125 0.10938 1.9375 0 0.75 0 1.4219-0.10938 2.0625-0.1563 0.95302-0.7188 1.2499-1.1719 1.2499z"/>
   </symbol>
  </g>
  <g id="g5088">
   <symbol id="textext-238fe5c6-1" overflow="visible">
    <path id="path5094" d="m2.0469-3.9844h0.9375c0.20312 0 0.3125 0 0.3125-0.20312 0-0.10938-0.10938-0.10938-0.28125-0.10938h-0.875c0.3594-1.4219 0.4063-1.6093 0.4063-1.6719 0-0.17188-0.125-0.26562-0.29688-0.26562-0.03125 0-0.3125 0-0.39062 0.35938l-0.39062 1.5781h-0.9375c-0.20312 0-0.29688 0-0.29688 0.1875 0 0.125 0.078125 0.125 0.28125 0.125h0.875c-0.71882 2.8282-0.7657 3-0.7657 3.1719 0 0.54688 0.375 0.92188 0.9219 0.92188 1.0156 0 1.5781-1.4532 1.5781-1.5313 0-0.1093-0.0781-0.1093-0.1094-0.1093-0.0937 0-0.1094 0.0312-0.1562 0.1406-0.4219 1.0468-0.9532 1.2812-1.2969 1.2812-0.20312 0-0.3125-0.125-0.3125-0.45312 0-0.25 0.03125-0.3125 0.0625-0.48438z"/>
   </symbol>
   <symbol id="textext-238fe5c6-3" overflow="visible">
    <path id="path5100" d="m2.0156-1.5156h1.0938c0.76562 0 1.6562-0.46875 1.6562-1.0781 0-0.46875-0.51562-0.8125-1.2344-0.8125h-1.9688c-0.09375 0-0.17188 0-0.17188 0.14062 0 0.078125 0.0625 0.078125 0.1875 0.078125 0.046875 0 0.21875 0 0.3125 0.03125 0 0.0625 0 0.078125-0.015625 0.125l-0.65625 2.625c-0.03125 0.14062-0.03125 0.1875-0.42188 0.1875-0.125 0-0.20312 0-0.20312 0.14062 0.00015 0.031205 0.0314 0.07808 0.0939 0.07808 0.09375 0 0.21875-0.015625 0.32812-0.015625h0.375 0.35938c0.125 0 0.25 0.015625 0.3594 0.015625 0.03125 0 0.125 0 0.125-0.14062 0-0.078125-0.078125-0.078125-0.17188-0.078125-0.015625 0-0.125 0-0.21875-0.015625-0.125-0.015625-0.125-0.015625-0.125-0.0625 0 0 0-0.015625 0.015625-0.0625zm0.35938-1.5c0.0469-0.1563 0.0469-0.1719 0.25-0.1719h0.73438c0.51562 0 0.85938 0.14062 0.85938 0.51562 0 0.15625-0.078125 0.53125-0.35938 0.75-0.28125 0.20312-0.67188 0.21875-0.875 0.21875h-0.9375z"/>
   </symbol>
  </g>
  <g id="g5315">
   <symbol id="textext-fbd6fbe4-1" overflow="visible">
    <path id="path5321" d="m3.3281-3.0156c0.0625-0.25 0.2969-1.1719 0.9844-1.1719 0.046875 0 0.29688 0 0.5 0.125-0.2813 0.0625-0.4687 0.2969-0.4687 0.5469 0 0.15625 0.10938 0.34375 0.375 0.34375 0.21875 0 0.53125-0.17188 0.53125-0.57812 0-0.51562-0.57812-0.65625-0.92188-0.65625-0.57812 0-0.92188 0.53125-1.0469 0.75-0.25-0.65625-0.78125-0.75-1.0781-0.75-1.0312 0-1.6094 1.2812-1.6094 1.5312 0 0.10938 0.10938 0.10938 0.125 0.10938 0.078125 0 0.10938-0.03125 0.125-0.10938 0.34375-1.0625 1-1.3125 1.3438-1.3125 0.1875 0 0.53125 0.09375 0.53125 0.67188 0 0.3125-0.17188 0.96875-0.53125 2.375-0.15625 0.60938-0.51562 1.0312-0.95312 1.0312-0.0625 0-0.28125 0-0.5-0.125 0.25-0.0625 0.46875-0.26562 0.46875-0.54688 0-0.26562-0.21875-0.34375-0.35938-0.34375-0.3125 0-0.54688 0.25-0.54688 0.57812 0 0.45312 0.48438 0.65625 0.92188 0.65625 0.67188 0 1.0312-0.70312 1.0469-0.75 0.125 0.35938 0.48438 0.75 1.0781 0.75 1.0312 0 1.5938-1.2812 1.5938-1.5312 0-0.10938-0.078125-0.10938-0.10938-0.10938-0.09375 0-0.10938 0.046875-0.14062 0.10938-0.32812 1.0781-1 1.3125-1.3125 1.3125-0.39062 0-0.54688-0.3125-0.54688-0.65625 0-0.21875 0.046875-0.4375 0.15625-0.875z"/>
   </symbol>
   <symbol id="textext-fbd6fbe4-3" overflow="visible">
    <path id="path5327" d="m2.0156-1.5156h1.0938c0.76562 0 1.6562-0.46875 1.6562-1.0781 0-0.46875-0.51562-0.8125-1.2344-0.8125h-1.9688c-0.09375 0-0.17188 0-0.17188 0.14062 0 0.078125 0.0625 0.078125 0.1875 0.078125 0.046875 0 0.21875 0 0.3125 0.03125 0 0.0625 0 0.078125-0.015625 0.125l-0.65625 2.625c-0.03125 0.14062-0.03125 0.1875-0.42188 0.1875-0.125 0-0.20312 0-0.20312 0.14062 0.00015 0.031205 0.0314 0.07808 0.0939 0.07808 0.09375 0 0.21875-0.015625 0.32812-0.015625h0.375 0.35938c0.125 0 0.25 0.015625 0.3594 0.015625 0.03125 0 0.125 0 0.125-0.14062 0-0.078125-0.078125-0.078125-0.17188-0.078125-0.015625 0-0.125 0-0.21875-0.015625-0.125-0.015625-0.125-0.015625-0.125-0.0625 0 0 0-0.015625 0.015625-0.0625zm0.35938-1.5c0.0469-0.1563 0.0469-0.1719 0.25-0.1719h0.73438c0.51562 0 0.85938 0.14062 0.85938 0.51562 0 0.15625-0.078125 0.53125-0.35938 0.75-0.28125 0.20312-0.67188 0.21875-0.875 0.21875h-0.9375z"/>
   </symbol>
  </g>
  <g id="g6205">
   <symbol id="textext-85eff3df-1" overflow="visible">
    <path id="path6211" d="m1.3125-0.54688c-0.0469 0.23438-0.0625 0.29688-0.60938 0.29688-0.125 0-0.20312 0-0.20312 0.15625 0 0.09375 0.07812 0.09375 0.20312 0.09375h2.4844c1.5469 0 3.0312-1.4219 3.0312-2.9375 0-1.0156-0.70312-1.8281-1.8281-1.8281h-2.5469c-0.14062 0-0.21875 0-0.21875 0.15625 0 0.09375 0.078125 0.09375 0.23438 0.09375 0.10938 0 0.14062 0 0.26562 0.015625 0.14062 0.015625 0.14062 0.03125 0.14062 0.10938 0 0 0 0.046875-0.015625 0.14062zm1.5625-3.7188c0.0625-0.21875 0.0625-0.25 0.35938-0.25h0.89062c0.78125 0 1.4375 0.39062 1.4375 1.3438 0 0.15625-0.078125 1.3594-0.76562 2.1562-0.2813 0.31258-0.875 0.7657-1.7344 0.7657h-0.9375c-0.21875 0-0.23438-0.015625-0.23438-0.078125 0 0 0-0.03125 0.03125-0.14062z"/>
   </symbol>
  </g>
  <g id="g6458">
   <symbol id="textext-980a7626-1" overflow="visible">
    <path id="path6464" d="m5.5156-1.6094c0.046875-0.09375 0.046875-0.125 0.046875-0.125 0-0.046875-0.03125-0.09375-0.125-0.09375-0.015625 0-0.046875 0-0.078125 0.015625 0 0.015625-0.015625 0.03125-0.09375 0.20312-0.4531 1.0156-0.8125 1.3594-1.9531 1.3594h-1.1875c-0.20312 0-0.21875-0.015625-0.21875-0.078125 0 0 0-0.03125 0.03125-0.14062l0.46875-1.8594h0.78125c0.54688 0 0.625 0.078125 0.625 0.3125 0 0.078125-0.015625 0.20312-0.046875 0.3125-0.0156 0.0625-0.0156 0.0781-0.0156 0.0937 0 0 0 0.09375 0.125 0.09375 0.09375 0 0.09375-0.03125 0.125-0.15625l0.39062-1.5312c0.015625-0.078125 0.015625-0.09375 0.015625-0.09375 0-0.078125-0.0625-0.10938-0.125-0.10938-0.09375 0-0.09375 0.046875-0.14062 0.1875-0.1406 0.5468-0.3437 0.6406-0.9375 0.6406h-0.73438l0.4219-1.6719c0.046875-0.20312 0.0625-0.23438 0.34375-0.23438h1.1406c0.92188 0 1.1406 0.1875 1.1406 0.8125 0 0.1875-0.03125 0.39062-0.03125 0.42188 0 0.0625 0.03125 0.125 0.125 0.125 0.10938 0 0.10938-0.0625 0.125-0.1875l0.125-1.2031c0.0156-0.2188-0.0313-0.2188-0.2032-0.2188h-3.8281c-0.14062 0-0.21875 0-0.21875 0.15625 0 0.09375 0.0625 0.09375 0.21875 0.09375 0.10938 0 0.14062 0 0.26562 0.015625 0.1407 0.0157 0.1563 0.0313 0.1563 0.0938 0 0.046875-0.015625 0.125-0.03125 0.15625l-0.9063 3.6407c-0.0781 0.28122-0.0781 0.3281-0.625 0.3281-0.125 0-0.20312 0-0.20312 0.15625 0 0.09375 0.07812 0.09375 0.20312 0.09375h3.9375c0.17188 0 0.1875 0 0.23438-0.125z"/>
   </symbol>
  </g>
  <g id="g4004">
   <symbol id="textext-cb6038b4-1" overflow="visible">
    <path id="path4010" d="m3.2656-3.5312c-0.1875 0.0468-0.375 0.1718-0.375 0.4218 0 0.2344 0.1875 0.4219 0.4219 0.4219s0.4219-0.1563 0.4219-0.4375c0-0.5469-0.625-0.8906-1.4219-0.8906-1.1406 0-2 0.9531-2 2.0781 0 1.1562 0.9219 2.0312 1.9844 2.0312 1.25 0.00005 1.5312-1.0781 1.5312-1.1562 0-0.1094-0.0937-0.1094-0.125-0.1094-0.0937 0-0.0937 0.0157-0.1562 0.1719-0.2031 0.60938-0.7031 0.84375-1.1563 0.84375-0.5781 0-1.3125-0.46875-1.3125-1.7968 0-1.3908 0.7188-1.8126 1.25-1.8126 0.125 0 0.6094 0.0156 0.9375 0.2344z"/>
   </symbol>
   <symbol id="textext-cb6038b4-2" overflow="visible">
    <path id="path4013" d="m1.6406-6.2188l-1.3281 0.0938v0.2812c0.60938 0 0.6875 0.0626 0.6875 0.5v4.6563c0 0.40625-0.09375 0.40625-0.6875 0.40625v0.28125c0.42188-0.015625 0.59375-0.03125 1.0313-0.03125 0.4218 0 0.5468 0.015625 1.0156 0.03125v-0.28125c-0.5938 0-0.6875 0-0.6875-0.40625v-1.6406c0-0.9531 0.6719-1.4063 1.2343-1.4063 0.5313 0 0.6407 0.4375 0.6407 0.9688v2.0781c0 0.40625-0.0938 0.40625-0.6875 0.40625v0.28125c0.4218-0.015625 0.5937-0.03125 1.0312-0.03125 0.4219 0 0.5469 0.015625 1.0156 0.03125v-0.28125c-0.4531 0-0.6874 0-0.6874-0.28125v-1.7187c0-0.7344 0-1-0.25-1.3126-0.2032-0.25-0.5469-0.375-1-0.375-0.5938 0-1.0469 0.3126-1.3126 0.8282h-0.0156z"/>
   </symbol>
   <symbol id="textext-cb6038b4-3" overflow="visible">
    <path id="path4016" d="m3.0625-0.64062c0.0469 0.375 0.3125 0.6875 0.7031 0.6875 0.2188-0.000005 0.7813-0.125 0.7813-0.84376v-0.50002h-0.25v0.4844c0 0.10938 0 0.54688-0.3281 0.54688-0.3126 0-0.3126-0.42188-0.3126-0.5625v-1.5781c0-0.5157 0-0.8126-0.4062-1.1876-0.3281-0.2968-0.7656-0.4218-1.2188-0.4218-0.75 0-1.375 0.375-1.375 0.9531 0.00005 0.2656 0.18755 0.4219 0.4219 0.4219 0.2344 0 0.4063-0.1719 0.4063-0.4063 0-0.3906-0.3906-0.4375-0.4063-0.4375 0.25-0.2344 0.6875-0.3125 0.9375-0.3125 0.4532 0 0.9688 0.3438 0.9688 1.1407v0.2812c-0.4844 0.0312-1.1563 0.0625-1.75 0.3594-0.65628 0.3125-0.84378 0.7812-0.84378 1.1406 0 0.73438 0.85938 0.96875 1.4688 0.96875 0.7344 0 1.0781-0.48437 1.2031-0.73437zm-0.0781-0.62498c0 0.87498-0.6719 1.1406-1.0625 1.1406-0.4219 0-0.8125-0.3125-0.8125-0.75 0-0.5938 0.5-1.2188 1.875-1.2812z"/>
   </symbol>
   <symbol id="textext-cb6038b4-4" overflow="visible">
    <path id="path4019" d="m1.5938-2.0469c0-0.375 0.0937-1.6875 1.125-1.6875-0.0157 0.0156-0.1563 0.125-0.1563 0.3282 0 0.25 0.1875 0.4062 0.3906 0.4062 0.1875 0 0.3907-0.1406 0.3907-0.4062 0-0.2813-0.2657-0.5626-0.6719-0.5626-0.5313 0-0.9063 0.375-1.125 0.9376v-0.9376l-1.2813 0.1094 0.00002 0.2656c0.60938 0 0.6875 0.0626 0.6875 0.5157v2.3906c0 0.40625-0.09374 0.40625-0.6875 0.40625v0.28125c0.48438-0.015625 0.59376-0.03125 1.0469-0.03125 0.3594 0 0.5781 0.015625 1.1406 0.03125v-0.28125h-0.1719c-0.6562 0-0.6874-0.09375-0.6874-0.42187z"/>
   </symbol>
   <symbol id="textext-cb6038b4-5" overflow="visible">
    <path id="path4022" d="m2.9219-3.5938v-0.2656h-1.3125v-1.6562h-0.25c0 0.75-0.3125 1.6718-1.1875 1.7031l-0.00002 0.2187h0.78124v2.4844c0 1 0.71878 1.2032 1.2031 1.2032 0.5938-0.00005 0.9063-0.56255 0.9063-1.2032v-0.5156h-0.25v0.4844c0 0.67185-0.2813 0.98435-0.5937 0.98435-0.6094 0-0.6094-0.78125-0.6094-0.95315v-2.4844z"/>
   </symbol>
   <symbol id="textext-cb6038b4-6" overflow="visible">
    <path id="path4025" d="m3.5938-2.0469c0.1874 0 0.2343 0 0.2343-0.2031 0-0.9219-0.5-1.7656-1.6562-1.7656-1.0625 0-1.9063 0.9375-1.9063 2.0468 0.00002 1.1719 0.9375 2.0626 2.0313 2.0626 1.0937-0.00005 1.5312-0.95318 1.5312-1.1563 0-0.0625-0.0469-0.125-0.125-0.125-0.0937 0-0.1093 0.0625-0.125 0.1094-0.2969 0.90622-1.1093 0.92185-1.2343 0.92185-0.4376 0-0.7969-0.23437-1-0.54687-0.2969-0.43748-0.3126-0.96878-0.3126-1.3438zm-2.5469-0.2187c0.0781-1.3906 0.875-1.5313 1.125-1.5313 0.5 0 1.0312 0.375 1.0469 1.5313z"/>
   </symbol>
   <symbol id="textext-cb6038b4-7" overflow="visible">
    <path id="path4028" d="m1.6562-3.9688l-1.2968 0.1094-0.00002 0.2656c0.57812 0 0.65622 0.0626 0.65622 0.5v2.4063c0 0.40625-0.09372 0.40625-0.68748 0.40625v0.28125c0.39063-0.015625 0.59376-0.03125 0.98438-0.03125 0.1406 0 0.5156 0 0.9531 0.03125v-0.28125c-0.5781 0-0.6094-0.04687-0.6094-0.39063zm0.0157-1.5624c0-0.2657-0.2031-0.4844-0.4844-0.4844-0.26562 0-0.48438 0.2344-0.48438 0.4844 0 0.2656 0.21876 0.4843 0.48438 0.4843 0.2813 0 0.4844-0.2031 0.4844-0.4843z"/>
   </symbol>
   <symbol id="textext-cb6038b4-8" overflow="visible">
    <path id="path4031" d="m3.0781-3.7812c0-0.1563 0-0.2344-0.0937-0.2344-0.0469 0-0.0625 0-0.1875 0.1094-0.0157 0.0156-0.0938 0.0937-0.1563 0.1406-0.2656-0.2032-0.5468-0.25-0.8594-0.25-1.1874 0-1.4687 0.6562-1.4687 1.1094 0 0.2812 0.125 0.5156 0.32812 0.7187 0.29688 0.2813 0.64058 0.3437 1.0938 0.4219 0.4687 0.0937 0.6094 0.1094 0.8125 0.2656 0.0937 0.0781 0.3125 0.25 0.3125 0.57812 0 0.79688-0.9063 0.79688-1.0313 0.79688-0.90622 0-1.1406-0.76562-1.25-1.25-0.03122-0.0938-0.04685-0.1406-0.1406-0.1406-0.125 0-0.125 0.0781-0.125 0.2344v1.1406c0 0.15622 0 0.23435 0.09375 0.23435 0.0625 0 0.0625 0 0.23437-0.17188 0.03126-0.06249 0.125-0.17187 0.17188-0.21875 0.375 0.375 0.7969 0.39063 1.0156 0.39063 1.1094 0 1.4844-0.64063 1.4844-1.2344 0-0.4063-0.1719-0.6563-0.375-0.8594-0.2969-0.2969-0.625-0.3594-1.2813-0.4844-0.2343-0.0468-0.89058-0.1562-0.89058-0.6718 0-0.2813 0.20313-0.6719 1.0156-0.6719 0.9688 0 1.0313 0.75 1.0469 0.9687 0.0157 0.1094 0.0157 0.1719 0.125 0.1719 0.125 0 0.125-0.0625 0.125-0.2344z"/>
   </symbol>
   <symbol id="textext-cb6038b4-9" overflow="visible">
    <path id="path4034" d="m3.5469-1.5c0 0.79688-0.4375 1.375-1.0938 1.375-0.7343 0-0.7812-0.39062-0.7812-0.875v-2.9688l-1.3594 0.1094v0.2656c0.6875 0 0.6875 0.0313 0.6875 0.8282v1.3437c0 0.59378 0 0.96878 0.4219 1.2813 0.25 0.17185 0.625 0.23435 0.9843 0.23435 0.4688 0 0.9063-0.20313 1.1563-0.73437h0.0156v0.73437l1.3281-0.09375v-0.28125c-0.6093 0-0.6874-0.0625-0.6874-0.5v-3.1876l-1.3594 0.1094v0.2656c0.6094 0 0.6875 0.0626 0.6875 0.5157z"/>
   </symbol>
   <symbol id="textext-cb6038b4-10" overflow="visible">
    <path id="path4037" d="m1.6094-3.1875c-0.0156-0.0469-0.0469-0.1094-0.0469-0.1719 0-0.2344 0.3281-0.2344 0.5-0.2344v-0.2656c-0.3906 0.0156-0.5937 0.0156-0.9844 0.0156-0.31248 0-0.5781 0-0.90622-0.0156v0.2656c0.42187 0 0.59374 0 0.73437 0.3438l1.3126 3.1719c0.0468 0.15622 0.125 0.17185 0.2031 0.17185s0.1562-0.015625 0.2187-0.17188l1.2188-2.9375c0.1875-0.4532 0.5-0.5625 0.8125-0.5782v-0.2656c-0.2657 0.0156-0.6719 0.0156-0.6875 0.0156-0.25 0-0.5313 0-0.7813-0.0156v0.2656c0.2657 0.0313 0.4063 0.1563 0.4063 0.3907 0 0.0937 0 0.1093-0.0469 0.2031l-0.9219 2.2656z"/>
   </symbol>
  </g>
  <g id="g4759">
   <symbol id="textext-77620a83-1" overflow="visible">
    <path id="path4765" d="m1.5938-2.0469c0-0.375 0.0937-1.6875 1.125-1.6875-0.0157 0.0156-0.1563 0.125-0.1563 0.3282 0 0.25 0.1875 0.4062 0.3906 0.4062 0.1875 0 0.3907-0.1406 0.3907-0.4062 0-0.2813-0.2657-0.5626-0.6719-0.5626-0.5313 0-0.9063 0.375-1.125 0.9376v-0.9376l-1.2813 0.1094 0.00002 0.2656c0.60938 0 0.6875 0.0626 0.6875 0.5157v2.3906c0 0.40625-0.09374 0.40625-0.6875 0.40625v0.28125c0.48438-0.015625 0.59376-0.03125 1.0469-0.03125 0.3594 0 0.5781 0.015625 1.1406 0.03125v-0.28125h-0.1719c-0.6562 0-0.6874-0.09375-0.6874-0.42187z"/>
   </symbol>
   <symbol id="textext-77620a83-2" overflow="visible">
    <path id="path4768" d="m3.5938-2.0469c0.1874 0 0.2343 0 0.2343-0.2031 0-0.9219-0.5-1.7656-1.6562-1.7656-1.0625 0-1.9063 0.9375-1.9063 2.0468 0.00002 1.1719 0.9375 2.0626 2.0313 2.0626 1.0937-0.00005 1.5312-0.95318 1.5312-1.1563 0-0.0625-0.0469-0.125-0.125-0.125-0.0937 0-0.1093 0.0625-0.125 0.1094-0.2969 0.90622-1.1093 0.92185-1.2343 0.92185-0.4376 0-0.7969-0.23437-1-0.54687-0.2969-0.43748-0.3126-0.96878-0.3126-1.3438zm-2.5469-0.2187c0.0781-1.3906 0.875-1.5313 1.125-1.5313 0.5 0 1.0312 0.375 1.0469 1.5313z"/>
   </symbol>
   <symbol id="textext-77620a83-3" overflow="visible">
    <path id="path4771" d="m1.125-1.6094c0.2188 0.1406 0.5 0.2813 0.9062 0.2813 0.8594 0 1.5-0.6094 1.5-1.3125 0-0.4375-0.25-0.75-0.3593-0.875 0.3593-0.3282 0.7812-0.3282 0.875-0.3282-0.0313 0.0313-0.1094 0.0782-0.1094 0.2344 0 0.1094 0.0625 0.2656 0.2656 0.2656 0.125 0 0.2657-0.0781 0.2657-0.2656 0-0.1718-0.125-0.4531-0.4844-0.4531-0.25 0-0.6563 0.0937-0.9688 0.4219-0.25-0.2032-0.5937-0.3282-0.9687-0.3282-0.8594 0-1.5 0.6094-1.5 1.3282-0.00002 0.4531 0.2656 0.7812 0.40622 0.9062-0.01562 0.0156-0.26562 0.3282-0.26562 0.75002 0 0.29688 0.14062 0.625 0.3906 0.78126-0.4531 0.15624-0.81248 0.48437-0.81248 0.90624 0 0.64068 0.87498 1.1407 2.0313 1.1407 1.1093 0 2.0469-0.4688 2.0469-1.1563 0-0.375-0.1719-0.76562-0.5-0.98438-0.5-0.3125-1.0313-0.3125-1.875-0.3125-0.1876 0-0.4688 0-0.5469-0.01562-0.25-0.0625-0.4219-0.29688-0.4219-0.5781 0-0.1563 0.0469-0.2813 0.125-0.4063zm0.9062 0.0469c-0.7968 0-0.7968-0.8906-0.7968-1.0781 0-0.25 0.0156-0.5469 0.1718-0.7656 0.1407-0.1876 0.375-0.3126 0.625-0.3126 0.8126 0 0.8126 0.8594 0.8126 1.0782 0 0.2031 0 1.0781-0.8126 1.0781zm0.4219 1.5156c0.2813 0 1.3907 0.015625 1.3907 0.73438 0 0.5156-0.7032 0.9219-1.5313 0.9219-0.8906 0-1.5469-0.4219-1.5469-0.9219 0.00002-0.14062 0.09378-0.73438 0.8594-0.73438z"/>
   </symbol>
   <symbol id="textext-77620a83-4" overflow="visible">
    <path id="path4774" d="m1.6562-3.9688l-1.2968 0.1094-0.00002 0.2656c0.57812 0 0.65622 0.0626 0.65622 0.5v2.4063c0 0.40625-0.09372 0.40625-0.68748 0.40625v0.28125c0.39063-0.015625 0.59376-0.03125 0.98438-0.03125 0.1406 0 0.5156 0 0.9531 0.03125v-0.28125c-0.5781 0-0.6094-0.04687-0.6094-0.39063zm0.0157-1.5624c0-0.2657-0.2031-0.4844-0.4844-0.4844-0.26562 0-0.48438 0.2344-0.48438 0.4844 0 0.2656 0.21876 0.4843 0.48438 0.4843 0.2813 0 0.4844-0.2031 0.4844-0.4843z"/>
   </symbol>
   <symbol id="textext-77620a83-5" overflow="visible">
    <path id="path4777" d="m4.3438-1.9062c0-1.1719-0.9376-2.1094-2.0313-2.1094-1.1406 0-2.0469 0.9531-2.0469 2.1094 0.00002 1.1093 0.9219 2 2.0313 2 1.1406-0.00005 2.0469-0.9063 2.0469-2zm-2.0313 1.75c-0.4531 0-0.8281-0.21875-1.0313-0.5625-0.2343-0.39065-0.25-0.85935-0.25-1.2656 0-0.3437 0-0.8437 0.2188-1.2187 0.2812-0.4531 0.7188-0.5938 1.0469-0.5938 0.5156 0 0.875 0.2969 1.0625 0.5938 0.2031 0.375 0.2031 0.8281 0.2031 1.2187 0 0.3282 0 0.8438-0.2187 1.2344-0.25 0.42188-0.6563 0.59375-1.0313 0.59375z"/>
   </symbol>
   <symbol id="textext-77620a83-6" overflow="visible">
    <path id="path4780" d="m1.6719-2.3281c0-0.9531 0.6719-1.4063 1.2343-1.4063 0.5313 0 0.6407 0.4375 0.6407 0.9688v2.0781c0 0.40625-0.0938 0.40625-0.6875 0.40625v0.28125c0.4218-0.015625 0.5937-0.03125 1.0312-0.03125 0.4219 0 0.5469 0.015625 1.0156 0.03125v-0.28125c-0.4531 0-0.6874 0-0.6874-0.28125v-1.7187c0-0.7344 0-1-0.25-1.3126-0.2032-0.25-0.5469-0.375-1-0.375-0.8282 0-1.2188 0.625-1.3438 0.875h-0.0156v-0.875l-1.2969 0.1094v0.2656c0.60938 0 0.6875 0.0626 0.6875 0.5157v2.3906c0 0.40625-0.09375 0.40625-0.6875 0.40625v0.28125c0.42188-0.015625 0.59375-0.03125 1.0313-0.03125 0.4218 0 0.5468 0.015625 1.0156 0.03125v-0.28125c-0.5938 0-0.6875 0-0.6875-0.40625z"/>
   </symbol>
   <symbol id="textext-77620a83-7" overflow="visible">
    <path id="path4783" d="m2.6875-3.5938v-0.2656h-1.0625v-1.0156c0-0.8125 0.4375-1.2188 0.8281-1.2188 0.0781 0 0.1719 0.0157 0.2657 0.0469-0.0938 0.0313-0.2344 0.1407-0.2344 0.375 0 0.2344 0.1718 0.3907 0.3906 0.3907 0.25 0 0.4062-0.1719 0.4062-0.4063 0-0.3437-0.3437-0.6406-0.8281-0.6406-0.7031 0-1.4375 0.5312-1.4375 1.4375v1.0312h-0.7031v0.2656h0.7031v2.9063c0 0.40625-0.09372 0.40625-0.68748 0.40625v0.28125c0.46876-0.015625 0.59376-0.03125 1.0469-0.03125 0.3594 0 0.5781 0.015625 1.1406 0.03125v-0.28125h-0.1875c-0.6562 0-0.6719-0.09375-0.6719-0.42187v-2.8907z"/>
   </symbol>
   <symbol id="textext-77620a83-8" overflow="visible">
    <path id="path4786" d="m3.8281-6.1719c-0.0312 0-0.0469 0-0.1093-0.0312-0.2813-0.1094-0.625-0.125-0.7657-0.125-1.0312 0-2 0.5469-2 1.4531l0.00002 1.0156h-0.70312v0.2656h0.70312v2.9063c0 0.40625-0.09374 0.40625-0.6875 0.40625v0.28125c0.42188-0.015625 0.59376-0.03125 1.0156-0.03125 0.4063 0 0.5626 0.015625 1 0.03125v-0.28125c-0.5937 0-0.6874 0-0.6874-0.40625v-2.9063h1.9218v2.9063c0 0.40625-0.0937 0.40625-0.6875 0.40625v0.28125c0.4219-0.015625 0.5938-0.03125 1-0.03125 0.4219 0 0.5781 0.015625 1.0157 0.03125v-0.28125c-0.5938 0-0.6876 0-0.6876-0.40625v-5.5313zm-2.2656 1.3125c0-0.875 0.75-1.2344 1.375-1.2344 0.1875 0 0.375 0.0157 0.5781 0.0626-0.125 0.0624-0.2031 0.2031-0.2031 0.3593 0 0.125 0.0625 0.2657 0.2031 0.3438v1.4687h-1.9531z"/>
   </symbol>
   <symbol id="textext-77620a83-9" overflow="visible">
    <path id="path4789" d="m3.5469-1.5c0 0.79688-0.4375 1.375-1.0938 1.375-0.7343 0-0.7812-0.39062-0.7812-0.875v-2.9688l-1.3594 0.1094v0.2656c0.6875 0 0.6875 0.0313 0.6875 0.8282v1.3437c0 0.59378 0 0.96878 0.4219 1.2813 0.25 0.17185 0.625 0.23435 0.9843 0.23435 0.4688 0 0.9063-0.20313 1.1563-0.73437h0.0156v0.73437l1.3281-0.09375v-0.28125c-0.6093 0-0.6874-0.0625-0.6874-0.5v-3.1876l-1.3594 0.1094v0.2656c0.6094 0 0.6875 0.0626 0.6875 0.5157z"/>
   </symbol>
   <symbol id="textext-77620a83-10" overflow="visible">
    <path id="path4792" d="m3.2656-3.5312c-0.1875 0.0468-0.375 0.1718-0.375 0.4218 0 0.2344 0.1875 0.4219 0.4219 0.4219s0.4219-0.1563 0.4219-0.4375c0-0.5469-0.625-0.8906-1.4219-0.8906-1.1406 0-2 0.9531-2 2.0781 0 1.1562 0.9219 2.0312 1.9844 2.0312 1.25 0.00005 1.5312-1.0781 1.5312-1.1562 0-0.1094-0.0937-0.1094-0.125-0.1094-0.0937 0-0.0937 0.0157-0.1562 0.1719-0.2031 0.60938-0.7031 0.84375-1.1563 0.84375-0.5781 0-1.3125-0.46875-1.3125-1.7968 0-1.3908 0.7188-1.8126 1.25-1.8126 0.125 0 0.6094 0.0156 0.9375 0.2344z"/>
   </symbol>
  </g>
  <g id="g5510">
   <symbol id="textext-e76a03b6-1" overflow="visible">
    <path id="path5516" d="m3.4844-1.0781c0 0.15622 0 0.18748-0.125 0.37498-0.2813 0.40624-0.7032 0.57812-1.0469 0.57812-0.3906 0-0.75-0.21875-0.9844-0.59375-0.2343-0.39065-0.25-0.90625-0.25-1.2032 0-0.4218 0.0469-0.8905 0.2813-1.2499 0.2031-0.2969 0.5625-0.5625 1.0468-0.5625 0.375 0 0.7344 0.1875 0.9688 0.5313 0.1094 0.1406 0.1094 0.1406 0.1094 0.3125zm0.0312-2.3594c-0.0468-0.0469-0.4531-0.5313-1.1406-0.5313-1.1094 0-2.0625 0.8907-2.0625 2.0469 0 1.1094 0.8906 2.0156 1.9531 2.0156 0.6563 0.00005 1.0625-0.37495 1.2188-0.56245v0.5625l1.3594-0.09375v-0.28125c-0.6094 0-0.6876-0.0625-0.6876-0.5v-5.4376l-1.3281 0.0938v0.2812c0.6094 0 0.6875 0.0626 0.6875 0.5z"/>
   </symbol>
   <symbol id="textext-e76a03b6-2" overflow="visible">
    <path id="path5519" d="m6.3438-2.9688c0.125 0 0.2968 0 0.2968-0.1874 0-0.2032-0.1875-0.2032-0.3281-0.2032h-5.4688c-0.14058 0-0.32808 0-0.32808 0.2032 0 0.1874 0.17188 0.1874 0.29688 0.1874zm-0.0313 1.8282c0.1406 0 0.3281 0 0.3281-0.2032 0-0.1874-0.1718-0.1874-0.2968-0.1874h-5.5313c-0.125 0-0.29688 0-0.29688 0.1874 0 0.2032 0.1875 0.2032 0.32813 0.2032z"/>
   </symbol>
   <symbol id="textext-e76a03b6-3" overflow="visible">
    <path id="path5522" d="m6.3281-2.0469c0.125 0 0.3125 0 0.3125-0.2031 0-0.1875-0.1718-0.1875-0.3125-0.1875h-2.5469v-2.5625c0-0.1406 0-0.3125-0.2031-0.3125-0.1875 0-0.1875 0.1875-0.1875 0.3125v2.5625h-2.5625c-0.12498 0-0.31248 0-0.31248 0.1875 0 0.2031 0.17188 0.2031 0.3125 0.2031h2.5625v2.5625c0 0.14065 0 0.31252 0.2032 0.31252 0.1874 0 0.1874-0.1875 0.1874-0.3125v-2.5625z"/>
   </symbol>
   <symbol id="textext-e76a03b6-5" overflow="visible">
    <path id="path5528" d="m4.4062-3.625c-0.3281 0.0625-0.4218 0.3438-0.4218 0.4844 0 0.1718 0.125 0.3281 0.3437 0.3281 0.25 0 0.5-0.2187 0.5-0.5313 0-0.4218-0.4531-0.625-0.875-0.625-0.5312 0-0.8437 0.4844-0.9531 0.6719-0.1719-0.4375-0.5625-0.6719-1-0.6719-0.9531 0-1.4844 1.1563-1.4844 1.3907 0.00002 0.0781 0.06252 0.1093 0.12502 0.1093 0.07813 0 0.10938-0.0468 0.125-0.1093 0.28128-0.8907 0.87498-1.1563 1.2188-1.1563 0.2656 0 0.4844 0.1719 0.4844 0.5938 0 0.3125-0.375 1.75-0.5 2.1875-0.0626 0.2656-0.3438 0.8281-0.8282 0.8281-0.18748 0-0.37498-0.0625-0.4531-0.10938 0.23438-0.04687 0.4219-0.26562 0.4219-0.48437 0-0.23437-0.1719-0.32815-0.34378-0.32815-0.26562 0-0.5 0.21878-0.5 0.53128 0 0.4375 0.48438 0.60937 0.85938 0.60937 0.5312 0 0.8281-0.42187 0.9688-0.67187 0.2187 0.59374 0.75 0.67187 0.9843 0.67187 0.9688 0 1.4844-1.1562 1.4844-1.375 0-0.0469-0.0313-0.1094-0.1094-0.1094-0.1093 0-0.1093 0.0312-0.1562 0.1718-0.2031 0.64068-0.7188 1.0938-1.1875 1.0938-0.25 0-0.5-0.15625-0.5-0.59375 0-0.20313 0.125-0.68745 0.2031-1.0312 0.0469-0.1562 0.2813-1.125 0.2969-1.1875 0.1094-0.3281 0.375-0.7969 0.8437-0.7969 0.1563 0 0.3281 0.0156 0.4531 0.1094z"/>
   </symbol>
   <symbol id="textext-e76a03b6-6" overflow="visible">
    <path id="path5531" d="m1.9062-3.5938h0.8594c0.1563 0 0.2656 0 0.2656-0.1562 0-0.1094-0.0937-0.1094-0.25-0.1094h-0.7968l0.3594-1.5c0-0.1406-0.1094-0.25-0.2657-0.25-0.2969 0-0.3593 0.25-0.3906 0.3438l-0.3437 1.4062h-0.8438c-0.17188 0-0.28125 0-0.28125 0.1563 0 0.1093 0.09375 0.1093 0.25 0.1093h0.81245l-0.62495 2.4532c-0.0625 0.2656-0.0625 0.28122-0.0625 0.40622 0 0.53126 0.40625 0.82813 0.87505 0.82813 0.9218 0 1.4531-1.2812 1.4531-1.375 0-0.0469-0.0313-0.1094-0.1094-0.1094-0.0937 0-0.1094 0.0312-0.1719 0.1875-0.2656 0.6406-0.7187 1.0781-1.1562 1.0781-0.1875 0-0.2969-0.10938-0.2969-0.40625 0-0.20313 0.0313-0.3125 0.0625-0.45313z"/>
   </symbol>
   <symbol id="textext-e76a03b6-7" overflow="visible">
    <path id="path5534" d="m4.375-2.9219c0.0469-0.2343 0.1562-0.6406 0.1562-0.6875 0-0.1094-0.0781-0.25-0.2812-0.25-0.125 0-0.2656 0.0782-0.3281 0.1875-0.0313 0.0781-0.6407 2.5157-0.7031 2.8125-0.1876 0.32815-0.5469 0.7344-1.0469 0.7344-0.5469 0-0.5469-0.5625-0.5469-0.73438 0-0.40622 0.1094-0.84372 0.5-1.8437 0.0781-0.2188 0.125-0.3438 0.125-0.5 0-0.4531-0.3281-0.7657-0.7656-0.7657-0.8594 0-1.2188 1.2813-1.2188 1.3907 0.00002 0.0781 0.06252 0.1093 0.12502 0.1093 0.09376 0 0.10938-0.0624 0.14063-0.1718 0.1875-0.6563 0.53125-1.0938 0.92185-1.0938 0.1875 0 0.2188 0.125 0.2188 0.2969 0 0.1406-0.0469 0.3125-0.125 0.5156-0.4219 1.125-0.5313 1.5-0.5313 1.9219 0 1 0.8125 1.0938 1.1406 1.0938 0.5-0.00005 0.875-0.31255 1.0938-0.5938 0.1719 0.59375 0.7656 0.59375 0.8125 0.59375 0.2656 0 0.4844-0.125 0.6719-0.46875 0.1562-0.29688 0.2968-0.875 0.2968-0.9062 0-0.0469-0.0312-0.1094-0.1093-0.1094-0.1094 0-0.125 0.0468-0.1563 0.2187-0.1875 0.70315-0.375 1.0469-0.6718 1.0469-0.2188 0-0.2813-0.1875-0.2813-0.40625 0-0.17187 0.0469-0.35937 0.125-0.67185l0.2187-0.9219z"/>
   </symbol>
   <symbol id="textext-e76a03b6-8" overflow="visible">
    <path id="path5537" d="m3.6094-3.4219c-0.3438 0-0.5313 0.2657-0.5313 0.4844 0 0.2656 0.2344 0.3281 0.3438 0.3281 0.1875 0 0.5-0.1562 0.5-0.5781 0-0.4687-0.4688-0.7813-1.0938-0.7813-1.2187 0-2.4375 1.25-2.4375 2.5313 0.00002 0.90625 0.59378 1.5312 1.5 1.5312 1.3438 0.00005 2.0938-0.92182 2.0938-1.0468 0-0.0469-0.0625-0.125-0.125-0.125-0.0313 0-0.0469 0.0156-0.125 0.10935-0.5469 0.65625-1.3594 0.84375-1.8282 0.84375-0.5 0-0.8281-0.32812-0.8281-0.9844 0-0.375 0.1719-1.2656 0.5313-1.8437 0.2031-0.3281 0.6718-0.7813 1.2344-0.7813 0.1718 0 0.5468 0.0313 0.7656 0.3125z"/>
   </symbol>
  </g>
  <g id="g6280">
   <symbol id="textext-2d32e2e4-1" overflow="visible">
    <path id="path6286" d="m2.375-2.1562h1.2656c1.1719 0 2.1719-0.75 2.1719-1.5157 0-0.5937-0.5781-1.0937-1.5313-1.0937h-2.4374c-0.1407 0-0.2188 0-0.2188 0.1562 0 0.0938 0.0781 0.0938 0.2344 0.0938 0.1094 0 0.1406 0 0.2656 0.0156 0.1406 0.0156 0.1406 0.0312 0.1406 0.1094 0 0 0 0.0468-0.0156 0.1406l-0.9219 3.6719c-0.0781 0.28122-0.0781 0.3281-0.62498 0.3281-0.125 0-0.20312 0-0.20312 0.15625 0 0 0 0.09375 0.10938 0.09375 0.20312 0 0.70312-0.03125 0.90622-0.03125 0.1094 0 0.3594 0 0.4844 0.015625 0.125 0 0.3125 0.015625 0.4375 0.015625 0.0469 0 0.1406 0 0.1406-0.15625 0-0.09375-0.0781-0.09375-0.2187-0.09375 0 0-0.1406 0-0.2656-0.01562-0.1563-0.01563-0.1563-0.03126-0.1563-0.10938 0 0 0-0.04688 0.0313-0.14062zm0.5-2.1094c0.0625-0.2188 0.0625-0.25 0.3594-0.25h0.8125c0.6562 0 1.0469 0.2031 1.0469 0.7031 0 0.2031-0.0782 0.7656-0.4219 1.0781-0.25 0.2188-0.6563 0.3438-1.1563 0.3438h-1.1094z"/>
   </symbol>
  </g>
  <g id="g6968">
   <symbol id="textext-eb90a123-1" overflow="visible">
    <path id="path6974" d="m3.4844-1.0781c0 0.15622 0 0.18748-0.125 0.37498-0.2813 0.40624-0.7032 0.57812-1.0469 0.57812-0.3906 0-0.75-0.21875-0.9844-0.59375-0.2343-0.39065-0.25-0.90625-0.25-1.2032 0-0.4218 0.0469-0.8905 0.2813-1.2499 0.2031-0.2969 0.5625-0.5625 1.0468-0.5625 0.375 0 0.7344 0.1875 0.9688 0.5313 0.1094 0.1406 0.1094 0.1406 0.1094 0.3125zm0.0312-2.3594c-0.0468-0.0469-0.4531-0.5313-1.1406-0.5313-1.1094 0-2.0625 0.8907-2.0625 2.0469 0 1.1094 0.8906 2.0156 1.9531 2.0156 0.6563 0.00005 1.0625-0.37495 1.2188-0.56245v0.5625l1.3594-0.09375v-0.28125c-0.6094 0-0.6876-0.0625-0.6876-0.5v-5.4376l-1.3281 0.0938v0.2812c0.6094 0 0.6875 0.0626 0.6875 0.5z"/>
   </symbol>
   <symbol id="textext-eb90a123-2" overflow="visible">
    <path id="path6977" d="m6.3438-2.9688c0.125 0 0.2968 0 0.2968-0.1874 0-0.2032-0.1875-0.2032-0.3281-0.2032h-5.4688c-0.14058 0-0.32808 0-0.32808 0.2032 0 0.1874 0.17188 0.1874 0.29688 0.1874zm-0.0313 1.8282c0.1406 0 0.3281 0 0.3281-0.2032 0-0.1874-0.1718-0.1874-0.2968-0.1874h-5.5313c-0.125 0-0.29688 0-0.29688 0.1874 0 0.2032 0.1875 0.2032 0.32813 0.2032z"/>
   </symbol>
   <symbol id="textext-eb90a123-4" overflow="visible">
    <path id="path6983" d="m4.4062-3.625c-0.3281 0.0625-0.4218 0.3438-0.4218 0.4844 0 0.1718 0.125 0.3281 0.3437 0.3281 0.25 0 0.5-0.2187 0.5-0.5313 0-0.4218-0.4531-0.625-0.875-0.625-0.5312 0-0.8437 0.4844-0.9531 0.6719-0.1719-0.4375-0.5625-0.6719-1-0.6719-0.9531 0-1.4844 1.1563-1.4844 1.3907 0.00002 0.0781 0.06252 0.1093 0.12502 0.1093 0.07813 0 0.10938-0.0468 0.125-0.1093 0.28128-0.8907 0.87498-1.1563 1.2188-1.1563 0.2656 0 0.4844 0.1719 0.4844 0.5938 0 0.3125-0.375 1.75-0.5 2.1875-0.0626 0.2656-0.3438 0.8281-0.8282 0.8281-0.18748 0-0.37498-0.0625-0.4531-0.10938 0.23438-0.04687 0.4219-0.26562 0.4219-0.48437 0-0.23437-0.1719-0.32815-0.34378-0.32815-0.26562 0-0.5 0.21878-0.5 0.53128 0 0.4375 0.48438 0.60937 0.85938 0.60937 0.5312 0 0.8281-0.42187 0.9688-0.67187 0.2187 0.59374 0.75 0.67187 0.9843 0.67187 0.9688 0 1.4844-1.1562 1.4844-1.375 0-0.0469-0.0313-0.1094-0.1094-0.1094-0.1093 0-0.1093 0.0312-0.1562 0.1718-0.2031 0.64068-0.7188 1.0938-1.1875 1.0938-0.25 0-0.5-0.15625-0.5-0.59375 0-0.20313 0.125-0.68745 0.2031-1.0312 0.0469-0.1562 0.2813-1.125 0.2969-1.1875 0.1094-0.3281 0.375-0.7969 0.8437-0.7969 0.1563 0 0.3281 0.0156 0.4531 0.1094z"/>
   </symbol>
   <symbol id="textext-eb90a123-5" overflow="visible">
    <path id="path6986" d="m1.9062-3.5938h0.8594c0.1563 0 0.2656 0 0.2656-0.1562 0-0.1094-0.0937-0.1094-0.25-0.1094h-0.7968l0.3594-1.5c0-0.1406-0.1094-0.25-0.2657-0.25-0.2969 0-0.3593 0.25-0.3906 0.3438l-0.3437 1.4062h-0.8438c-0.17188 0-0.28125 0-0.28125 0.1563 0 0.1093 0.09375 0.1093 0.25 0.1093h0.81245l-0.62495 2.4532c-0.0625 0.2656-0.0625 0.28122-0.0625 0.40622 0 0.53126 0.40625 0.82813 0.87505 0.82813 0.9218 0 1.4531-1.2812 1.4531-1.375 0-0.0469-0.0313-0.1094-0.1094-0.1094-0.0937 0-0.1094 0.0312-0.1719 0.1875-0.2656 0.6406-0.7187 1.0781-1.1562 1.0781-0.1875 0-0.2969-0.10938-0.2969-0.40625 0-0.20313 0.0313-0.3125 0.0625-0.45313z"/>
   </symbol>
   <symbol id="textext-eb90a123-6" overflow="visible">
    <path id="path6989" d="m4.375-2.9219c0.0469-0.2343 0.1562-0.6406 0.1562-0.6875 0-0.1094-0.0781-0.25-0.2812-0.25-0.125 0-0.2656 0.0782-0.3281 0.1875-0.0313 0.0781-0.6407 2.5157-0.7031 2.8125-0.1876 0.32815-0.5469 0.7344-1.0469 0.7344-0.5469 0-0.5469-0.5625-0.5469-0.73438 0-0.40622 0.1094-0.84372 0.5-1.8437 0.0781-0.2188 0.125-0.3438 0.125-0.5 0-0.4531-0.3281-0.7657-0.7656-0.7657-0.8594 0-1.2188 1.2813-1.2188 1.3907 0.00002 0.0781 0.06252 0.1093 0.12502 0.1093 0.09376 0 0.10938-0.0624 0.14063-0.1718 0.1875-0.6563 0.53125-1.0938 0.92185-1.0938 0.1875 0 0.2188 0.125 0.2188 0.2969 0 0.1406-0.0469 0.3125-0.125 0.5156-0.4219 1.125-0.5313 1.5-0.5313 1.9219 0 1 0.8125 1.0938 1.1406 1.0938 0.5-0.00005 0.875-0.31255 1.0938-0.5938 0.1719 0.59375 0.7656 0.59375 0.8125 0.59375 0.2656 0 0.4844-0.125 0.6719-0.46875 0.1562-0.29688 0.2968-0.875 0.2968-0.9062 0-0.0469-0.0312-0.1094-0.1093-0.1094-0.1094 0-0.125 0.0468-0.1563 0.2187-0.1875 0.70315-0.375 1.0469-0.6718 1.0469-0.2188 0-0.2813-0.1875-0.2813-0.40625 0-0.17187 0.0469-0.35937 0.125-0.67185l0.2187-0.9219z"/>
   </symbol>
   <symbol id="textext-eb90a123-7" overflow="visible">
    <path id="path6992" d="m3.6094-3.4219c-0.3438 0-0.5313 0.2657-0.5313 0.4844 0 0.2656 0.2344 0.3281 0.3438 0.3281 0.1875 0 0.5-0.1562 0.5-0.5781 0-0.4687-0.4688-0.7813-1.0938-0.7813-1.2187 0-2.4375 1.25-2.4375 2.5313 0.00002 0.90625 0.59378 1.5312 1.5 1.5312 1.3438 0.00005 2.0938-0.92182 2.0938-1.0468 0-0.0469-0.0625-0.125-0.125-0.125-0.0313 0-0.0469 0.0156-0.125 0.10935-0.5469 0.65625-1.3594 0.84375-1.8282 0.84375-0.5 0-0.8281-0.32812-0.8281-0.9844 0-0.375 0.1719-1.2656 0.5313-1.8437 0.2031-0.3281 0.6718-0.7813 1.2344-0.7813 0.1718 0 0.5468 0.0313 0.7656 0.3125z"/>
   </symbol>
   <symbol id="textext-eb90a123-9" overflow="visible">
    <path id="path6998" d="m6.0469-2.0469c0.1719 0 0.3437 0 0.3437-0.2031 0-0.1875-0.1875-0.1875-0.3437-0.1875h-4.9375c-0.15628 0-0.34378 0-0.34378 0.1875 0 0.2031 0.17188 0.2031 0.34378 0.2031z"/>
   </symbol>
  </g>
  <g id="g7702">
   <symbol id="textext-23042e65-1" overflow="visible">
    <path id="path7708" d="m3.4844-1.0781c0 0.15622 0 0.18748-0.125 0.37498-0.2813 0.40624-0.7032 0.57812-1.0469 0.57812-0.3906 0-0.75-0.21875-0.9844-0.59375-0.2343-0.39065-0.25-0.90625-0.25-1.2032 0-0.4218 0.0469-0.8905 0.2813-1.2499 0.2031-0.2969 0.5625-0.5625 1.0468-0.5625 0.375 0 0.7344 0.1875 0.9688 0.5313 0.1094 0.1406 0.1094 0.1406 0.1094 0.3125zm0.0312-2.3594c-0.0468-0.0469-0.4531-0.5313-1.1406-0.5313-1.1094 0-2.0625 0.8907-2.0625 2.0469 0 1.1094 0.8906 2.0156 1.9531 2.0156 0.6563 0.00005 1.0625-0.37495 1.2188-0.56245v0.5625l1.3594-0.09375v-0.28125c-0.6094 0-0.6876-0.0625-0.6876-0.5v-5.4376l-1.3281 0.0938v0.2812c0.6094 0 0.6875 0.0626 0.6875 0.5z"/>
   </symbol>
   <symbol id="textext-23042e65-2" overflow="visible">
    <path id="path7711" d="m4.3438-1.9062c0-1.1719-0.9376-2.1094-2.0313-2.1094-1.1406 0-2.0469 0.9531-2.0469 2.1094 0.00002 1.1093 0.9219 2 2.0313 2 1.1406-0.00005 2.0469-0.9063 2.0469-2zm-2.0313 1.75c-0.4531 0-0.8281-0.21875-1.0313-0.5625-0.2343-0.39065-0.25-0.85935-0.25-1.2656 0-0.3437 0-0.8437 0.2188-1.2187 0.2812-0.4531 0.7188-0.5938 1.0469-0.5938 0.5156 0 0.875 0.2969 1.0625 0.5938 0.2031 0.375 0.2031 0.8281 0.2031 1.2187 0 0.3282 0 0.8438-0.2187 1.2344-0.25 0.42188-0.6563 0.59375-1.0313 0.59375z"/>
   </symbol>
   <symbol id="textext-23042e65-3" overflow="visible">
    <path id="path7714" d="m1.6719-2.3281c0-0.9688 0.7031-1.4063 1.2343-1.4063 0.5 0 0.6563 0.3438 0.6563 0.9688v2.0781c0 0.40625-0.0937 0.40625-0.6875 0.40625v0.28125c0.4219-0.015625 0.5938-0.03125 1.0156-0.03125 0.4375 0 0.5469 0.015625 1.0313 0.03125v-0.28125c-0.5938 0-0.7031 0-0.7031-0.40625v-1.6406c0-0.9688 0.7031-1.4063 1.25-1.4063 0.4843 0 0.6406 0.3438 0.6406 0.9688v2.0781c0 0.40625-0.0938 0.40625-0.6875 0.40625v0.28125c0.4219-0.015625 0.5937-0.03125 1.0312-0.03125 0.4219 0 0.5469 0.015625 1.0157 0.03125v-0.28125c-0.4532 0-0.6719 0-0.6876-0.28125v-1.7187c0-0.7813 0-1.0313-0.2968-1.3594-0.1875-0.2188-0.5469-0.3282-0.9532-0.3282-0.6562 0-1.0937 0.375-1.3437 0.8594-0.1094-0.5312-0.4687-0.8594-1.2187-0.8594-0.7188 0-1.1563 0.4688-1.3438 0.8907h-0.0156v-0.8907l-1.2969 0.1094v0.2656c0.60938 0 0.6875 0.0626 0.6875 0.5157v2.3906c0 0.40625-0.09375 0.40625-0.6875 0.40625v0.28125c0.42188-0.015625 0.59375-0.03125 1.0313-0.03125 0.4218 0 0.5468 0.015625 1.0156 0.03125v-0.28125c-0.5938 0-0.6875 0-0.6875-0.40625z"/>
   </symbol>
   <symbol id="textext-23042e65-4" overflow="visible">
    <path id="path7717" d="m3.0625-0.64062c0.0469 0.375 0.3125 0.6875 0.7031 0.6875 0.2188-0.000005 0.7813-0.125 0.7813-0.84376v-0.50002h-0.25v0.4844c0 0.10938 0 0.54688-0.3281 0.54688-0.3126 0-0.3126-0.42188-0.3126-0.5625v-1.5781c0-0.5157 0-0.8126-0.4062-1.1876-0.3281-0.2968-0.7656-0.4218-1.2188-0.4218-0.75 0-1.375 0.375-1.375 0.9531 0.00005 0.2656 0.18755 0.4219 0.4219 0.4219 0.2344 0 0.4063-0.1719 0.4063-0.4063 0-0.3906-0.3906-0.4375-0.4063-0.4375 0.25-0.2344 0.6875-0.3125 0.9375-0.3125 0.4532 0 0.9688 0.3438 0.9688 1.1407v0.2812c-0.4844 0.0312-1.1563 0.0625-1.75 0.3594-0.65628 0.3125-0.84378 0.7812-0.84378 1.1406 0 0.73438 0.85938 0.96875 1.4688 0.96875 0.7344 0 1.0781-0.48437 1.2031-0.73437zm-0.0781-0.62498c0 0.87498-0.6719 1.1406-1.0625 1.1406-0.4219 0-0.8125-0.3125-0.8125-0.75 0-0.5938 0.5-1.2188 1.875-1.2812z"/>
   </symbol>
   <symbol id="textext-23042e65-5" overflow="visible">
    <path id="path7720" d="m1.6562-3.9688l-1.2968 0.1094-0.00002 0.2656c0.57812 0 0.65622 0.0626 0.65622 0.5v2.4063c0 0.40625-0.09372 0.40625-0.68748 0.40625v0.28125c0.39063-0.015625 0.59376-0.03125 0.98438-0.03125 0.1406 0 0.5156 0 0.9531 0.03125v-0.28125c-0.5781 0-0.6094-0.04687-0.6094-0.39063zm0.0157-1.5624c0-0.2657-0.2031-0.4844-0.4844-0.4844-0.26562 0-0.48438 0.2344-0.48438 0.4844 0 0.2656 0.21876 0.4843 0.48438 0.4843 0.2813 0 0.4844-0.2031 0.4844-0.4843z"/>
   </symbol>
   <symbol id="textext-23042e65-6" overflow="visible">
    <path id="path7723" d="m1.6719-2.3281c0-0.9531 0.6719-1.4063 1.2343-1.4063 0.5313 0 0.6407 0.4375 0.6407 0.9688v2.0781c0 0.40625-0.0938 0.40625-0.6875 0.40625v0.28125c0.4218-0.015625 0.5937-0.03125 1.0312-0.03125 0.4219 0 0.5469 0.015625 1.0156 0.03125v-0.28125c-0.4531 0-0.6874 0-0.6874-0.28125v-1.7187c0-0.7344 0-1-0.25-1.3126-0.2032-0.25-0.5469-0.375-1-0.375-0.8282 0-1.2188 0.625-1.3438 0.875h-0.0156v-0.875l-1.2969 0.1094v0.2656c0.60938 0 0.6875 0.0626 0.6875 0.5157v2.3906c0 0.40625-0.09375 0.40625-0.6875 0.40625v0.28125c0.42188-0.015625 0.59375-0.03125 1.0313-0.03125 0.4218 0 0.5468 0.015625 1.0156 0.03125v-0.28125c-0.5938 0-0.6875 0-0.6875-0.40625z"/>
   </symbol>
   <symbol id="textext-23042e65-7" overflow="visible">
    <path id="path7726" d="m2.6875-3.5938v-0.2656h-1.0625v-1.0156c0-0.8125 0.4375-1.2188 0.8281-1.2188 0.0781 0 0.1719 0.0157 0.2657 0.0469-0.0938 0.0313-0.2344 0.1407-0.2344 0.375 0 0.2344 0.1718 0.3907 0.3906 0.3907 0.25 0 0.4062-0.1719 0.4062-0.4063 0-0.3437-0.3437-0.6406-0.8281-0.6406-0.7031 0-1.4375 0.5312-1.4375 1.4375v1.0312h-0.7031v0.2656h0.7031v2.9063c0 0.40625-0.09372 0.40625-0.68748 0.40625v0.28125c0.46876-0.015625 0.59376-0.03125 1.0469-0.03125 0.3594 0 0.5781 0.015625 1.1406 0.03125v-0.28125h-0.1875c-0.6562 0-0.6719-0.09375-0.6719-0.42187v-2.8907z"/>
   </symbol>
   <symbol id="textext-23042e65-8" overflow="visible">
    <path id="path7729" d="m3.5938-2.0469c0.1874 0 0.2343 0 0.2343-0.2031 0-0.9219-0.5-1.7656-1.6562-1.7656-1.0625 0-1.9063 0.9375-1.9063 2.0468 0.00002 1.1719 0.9375 2.0626 2.0313 2.0626 1.0937-0.00005 1.5312-0.95318 1.5312-1.1563 0-0.0625-0.0469-0.125-0.125-0.125-0.0937 0-0.1093 0.0625-0.125 0.1094-0.2969 0.90622-1.1093 0.92185-1.2343 0.92185-0.4376 0-0.7969-0.23437-1-0.54687-0.2969-0.43748-0.3126-0.96878-0.3126-1.3438zm-2.5469-0.2187c0.0781-1.3906 0.875-1.5313 1.125-1.5313 0.5 0 1.0312 0.375 1.0469 1.5313z"/>
   </symbol>
   <symbol id="textext-23042e65-9" overflow="visible">
    <path id="path7732" d="m1.625-3.0156c0.2969-0.5156 0.7969-0.7032 1.1719-0.7032 0.7031 0 1.2343 0.8126 1.2343 1.7813 0 1.0156-0.6093 1.8125-1.3281 1.8125-0.4062 0-0.75-0.23438-0.9687-0.54688-0.1094-0.1875-0.1094-0.20312-0.1094-0.37502zm0 2.5781c0.2344 0.23438 0.5312 0.53125 1.125 0.53125 1.0781 0 2.0625-0.85937 2.0625-2.0312 0-1.1251-0.8906-2.0314-1.9375-2.0314-0.4844 0-0.9375 0.2032-1.2812 0.5626v-0.5626l-1.3282 0.1094 0.00002 0.2656c0.64063 0 0.6875 0.0626 0.6875 0.4532v4.1875c0 0.4219-0.09374 0.4219-0.6875 0.4219v0.2656c0.42188-0.0156 0.59376-0.0156 1.0313-0.0156 0.4219 0 0.5469 0 1.0156 0.0156v-0.2656c-0.5937 0-0.6875 0-0.6875-0.4219z"/>
   </symbol>
   <symbol id="textext-23042e65-10" overflow="visible">
    <path id="path7735" d="m3.2656-3.5312c-0.1875 0.0468-0.375 0.1718-0.375 0.4218 0 0.2344 0.1875 0.4219 0.4219 0.4219s0.4219-0.1563 0.4219-0.4375c0-0.5469-0.625-0.8906-1.4219-0.8906-1.1406 0-2 0.9531-2 2.0781 0 1.1562 0.9219 2.0312 1.9844 2.0312 1.25 0.00005 1.5312-1.0781 1.5312-1.1562 0-0.1094-0.0937-0.1094-0.125-0.1094-0.0937 0-0.0937 0.0157-0.1562 0.1719-0.2031 0.60938-0.7031 0.84375-1.1563 0.84375-0.5781 0-1.3125-0.46875-1.3125-1.7968 0-1.3908 0.7188-1.8126 1.25-1.8126 0.125 0 0.6094 0.0156 0.9375 0.2344z"/>
   </symbol>
  </g>
 </defs>
 <g id="layer2" transform="translate(47.56 12.756)">
  <path id="path4168-6" style="opacity:0.54;color-rendering:auto;color:#000000;isolation:auto;mix-blend-mode:normal;shape-rendering:auto;solid-color:#000000;image-rendering:auto;fill:url(#linearGradient9473)" d="m175 252.36s91.755 124.9 150 175c59.6 51.268 153.05 80.431 200 125 46.955 44.569 87.5 125 87.5 125h-400s39.402-111.45 75-162.5c35.598-51.052 83.392-93.142 137.5-137.5s187.5-125 187.5-125-55.63-38.99-92.355-43.203c-36.726-4.2137-74.935 21.889-117.23 24.875-42.29 2.98-95.78-13.37-134.25-9.17-38.46 4.2-93.66 27.49-93.66 27.49z"/>
 </g>
 <g id="layer1" transform="translate(47.56 12.756)">
  <path id="path3338-7" style="color-rendering:auto;color:#000000;shape-rendering:auto;solid-color:#000000;stroke:#000;stroke-width:3.3723;fill:none;mix-blend-mode:normal;image-rendering:auto;marker-end:url(#Arrow2Mend-3);isolation:auto" d="m76.257 676.96v-611.81"/>
  <path id="path4160" style="color-rendering:auto;color:#000000;shape-rendering:auto;solid-color:#000000;stroke:#433d85;stroke-width:4;fill:none;mix-blend-mode:normal;image-rendering:auto;isolation:auto" d="m212.5 677.36s39.402-111.45 75-162.5c35.598-51.052 83.392-93.142 137.5-137.5s187.5-125 187.5-125"/>
  <path id="path4168" style="color-rendering:auto;color:#000000;shape-rendering:auto;solid-color:#000000;stroke:#ede61b;stroke-width:4;fill:none;mix-blend-mode:normal;image-rendering:auto;isolation:auto" d="m612.5 677.36s-40.545-80.431-87.5-125-140.4-73.732-200-125c-58.245-50.102-150-175-150-175"/>
  <path id="path3338" style="color-rendering:auto;color:#000000;shape-rendering:auto;solid-color:#000000;stroke:#000;stroke-width:4;fill:none;mix-blend-mode:normal;image-rendering:auto;marker-end:url(#Arrow2Mend);isolation:auto" d="m75 677.36h710.1"/>
  <circle id="path5037" r="6.25" style="color-rendering:auto;color:#000000;shape-rendering:auto;solid-color:#000000;stroke:#000;stroke-width:2;fill-rule:evenodd;mix-blend-mode:normal;image-rendering:auto;isolation:auto" cx="348.57" cy="444.49"/>
  <g id="g4201"  transform="matrix(5.941 0 0 5.941 -554.86 -72.293)" >
   <g id="textext-c459cdf6-2">
    <g id="g4214">
     <use id="use4216" xlink:href="#textext-c459cdf6-1" height="100%" width="100%" y="134.765" x="223.43201"/>
    </g>
   </g>
  </g>
  <g id="g4324"  transform="matrix(5.941 0 0 5.941 -1295 -705.5)">
   <g id="textext-ba034657-2">
    <g id="g4337">
     <use id="use4339" xlink:href="#textext-ba034657-1" height="100%" width="100%" y="134.765" x="223.43201"/>
    </g>
   </g>
  </g>
  <g id="g4449"  transform="matrix(4.4142 0 0 4.4142 -946.3 112.74)" >
   <g id="textext-7008435c-2">
    <g id="g4462">
     <use id="use4464" xlink:href="#textext-7008435c-1" height="100%" width="100%" y="134.765" x="223.43201"/>
    </g>
   </g>
  </g>
  <path id="path4517" d="m348.84 689.86v-12.5" style="color-rendering:auto;color:#000000;shape-rendering:auto;solid-color:#000000;stroke:#000;stroke-width:4;fill:none;mix-blend-mode:normal;image-rendering:auto;isolation:auto"/>
  <path id="path4517-1" d="m63.403 444.08h12.5" style="color-rendering:auto;color:#000000;shape-rendering:auto;solid-color:#000000;stroke:#000;stroke-width:4;fill:none;mix-blend-mode:normal;image-rendering:auto;isolation:auto"/>
  <g id="g5084"  transform="matrix(5.941 0 0 5.941 -1305.5 -338.13)" >
   <g id="textext-238fe5c6-4">
    <g id="g5103">
     <use id="use5105" xlink:href="#textext-238fe5c6-1" height="100%" width="100%" y="134.765" x="223.43201"/>
    </g>
    <g id="g5107">
     <use id="use5109" xlink:href="#textext-238fe5c6-3" height="100%" width="100%" y="137.261" x="226.033"/>
    </g>
   </g>
  </g>
  <g id="g5311"  transform="matrix(5.941 0 0 5.941 -997.17 -71)">
   <g id="textext-fbd6fbe4-4">
    <g id="g5330">
     <use id="use5332" xlink:href="#textext-fbd6fbe4-1" height="100%" width="100%" y="134.765" x="223.43201"/>
    </g>
    <g id="g5334">
     <use id="use5336" xlink:href="#textext-fbd6fbe4-3" height="100%" width="100%" y="137.261" x="228.13"/>
    </g>
   </g>
  </g>
  <g id="g6201"  transform="matrix(5.941 0 0 5.941 -1132.3 -79.699)">
   <g id="textext-85eff3df-2">
    <g id="g6214">
     <use id="use6216" style="fill:#000000" xlink:href="#textext-85eff3df-1" height="100%" width="100%" y="136.259" x="223.43201"/>
    </g>
   </g>
  </g>
  <g id="g6454"  transform="matrix(5.941 0 0 5.941 -736.03 -79.699)" >
   <g id="textext-980a7626-2">
    <g id="g6467">
     <use id="use6469" style="fill:#000000" xlink:href="#textext-980a7626-1" height="100%" width="100%" y="136.259" x="223.43201"/>
    </g>
   </g>
  </g>
  <path id="path9567-6" d="m570.41 273.65-62.5-62.5v25l-68.515-71.292" style="color-rendering:auto;color:#000000;marker-start:url(#Arrow2Mstart-7);shape-rendering:auto;solid-color:#000000;stroke:#000;stroke-width:3;fill:none;mix-blend-mode:normal;image-rendering:auto;isolation:auto"/>
  <path id="path9567" d="m193.98 271.81 62.5-62.5v25l68.515-71.292" style="color-rendering:auto;color:#000000;marker-start:url(#Arrow2Mstart);shape-rendering:auto;solid-color:#000000;stroke:#000;stroke-width:3;fill:none;mix-blend-mode:normal;image-rendering:auto;isolation:auto"/>
  <path id="path9567-0" d="m507.86 534.32 63.436-51.396" style="color-rendering:auto;color:#000000;marker-start:url(#Arrow2Mstart-2);shape-rendering:auto;solid-color:#000000;stroke:#000;stroke-width:3;fill:none;mix-blend-mode:normal;image-rendering:auto;isolation:auto"/>
  <path id="path9567-0-2" d="m246.38 578.29-63.44-51.39" style="color-rendering:auto;color:#000000;marker-start:url(#Arrow2Mstart-2-6);shape-rendering:auto;solid-color:#000000;stroke:#000;stroke-width:3;fill:none;mix-blend-mode:normal;image-rendering:auto;isolation:auto"/>
  <g id="g4000"  transform="matrix(4.2342 0 0 4.2342 -1290.4 -456.31)" >
   <g id="textext-cb6038b4-11">
    <g id="g4040">
     <use id="use4042" y="134.765" x="368.489" xlink:href="#textext-cb6038b4-1"/>
    </g>
    <g id="g4044">
     <use id="use4046" y="134.765" x="372.324826" xlink:href="#textext-cb6038b4-2"/>
     <use id="use4048" y="134.765" x="377.44464" xlink:href="#textext-cb6038b4-3"/>
     <use id="use4050" y="134.765" x="382.052473" xlink:href="#textext-cb6038b4-4"/>
     <use id="use4052" y="134.765" x="385.656966" xlink:href="#textext-cb6038b4-3"/>
     <use id="use4054" y="134.765" x="390.264799" xlink:href="#textext-cb6038b4-1"/>
     <use id="use4056" y="134.765" x="394.360651" xlink:href="#textext-cb6038b4-5"/>
     <use id="use4058" y="134.765" x="397.944521" xlink:href="#textext-cb6038b4-6"/>
     <use id="use4060" y="134.765" x="402.043959" xlink:href="#textext-cb6038b4-4"/>
     <use id="use4062" y="134.765" x="405.648452" xlink:href="#textext-cb6038b4-7"/>
     <use id="use4064" y="134.765" x="408.208359" xlink:href="#textext-cb6038b4-8"/>
     <use id="use4066" y="134.765" x="411.843337" xlink:href="#textext-cb6038b4-5"/>
     <use id="use4068" y="134.765" x="415.427207" xlink:href="#textext-cb6038b4-7"/>
     <use id="use4070" y="134.765" x="417.987115" xlink:href="#textext-cb6038b4-1"/>
    </g>
    <g id="g4072">
     <use id="use4074" y="142.635" x="382.707" xlink:href="#textext-cb6038b4-1"/>
     <use id="use4076" y="142.635" x="386.802852" xlink:href="#textext-cb6038b4-9"/>
     <use id="use4078" y="142.635" x="391.922666" xlink:href="#textext-cb6038b4-4"/>
     <use id="use4080" y="142.635" x="395.527159" xlink:href="#textext-cb6038b4-10"/>
    </g>
    <g id="g4082">
     <use id="use4084" y="142.635" x="400.130508" xlink:href="#textext-cb6038b4-6"/>
     <use id="use4086" y="142.635" x="404.229947" xlink:href="#textext-cb6038b4-8"/>
    </g>
   </g>
  </g>
  <g id="g4755"  transform="matrix(4.3251 0 0 4.3251 -682.28 -274.06)">
   <g id="textext-77620a83-11">
    <g id="g4795">
     <use id="use4797" y="134.765" x="223.432" xlink:href="#textext-77620a83-1"/>
     <use id="use4799" y="134.765" x="227.036493" xlink:href="#textext-77620a83-2"/>
     <use id="use4801" y="134.765" x="231.135931" xlink:href="#textext-77620a83-3"/>
     <use id="use4803" y="134.765" x="235.743764" xlink:href="#textext-77620a83-4"/>
     <use id="use4805" y="134.765" x="238.303671" xlink:href="#textext-77620a83-5"/>
     <use id="use4807" y="134.765" x="242.911504" xlink:href="#textext-77620a83-6"/>
    </g>
    <g id="g4809">
     <use id="use4811" y="134.765" x="251.106794" xlink:href="#textext-77620a83-5"/>
     <use id="use4813" y="134.765" x="255.714627" xlink:href="#textext-77620a83-7"/>
    </g>
    <g id="g4815">
     <use id="use4817" y="143.794" x="223.432" xlink:href="#textext-77620a83-4"/>
     <use id="use4819" y="143.794" x="225.991907" xlink:href="#textext-77620a83-6"/>
     <use id="use4821" y="143.794" x="231.111722" xlink:href="#textext-77620a83-8"/>
     <use id="use4823" y="143.794" x="236.231536" xlink:href="#textext-77620a83-9"/>
     <use id="use4825" y="143.794" x="241.35135" xlink:href="#textext-77620a83-2"/>
     <use id="use4827" y="143.794" x="245.450788" xlink:href="#textext-77620a83-6"/>
     <use id="use4829" y="143.794" x="250.570603" xlink:href="#textext-77620a83-10"/>
     <use id="use4831" y="143.794" x="254.666454" xlink:href="#textext-77620a83-2"/>
    </g>
   </g>
  </g>
  <g id="g5506" transform="matrix(4.1092 0 0 4.1092 -1444.9 -46.69)" >
   <g id="textext-e76a03b6-9">
    <g id="g5540">
     <use id="use5542" y="131.029" x="373.695" xlink:href="#textext-e76a03b6-1"/>
    </g>
    <g id="g5544">
     <use id="use5546" y="131.029" x="378.814" xlink:href="#textext-e76a03b6-5"/>
    </g>
    <path id="path5548" style="stroke:#000;stroke-miterlimit:10;stroke-width:.379;fill:none" d="m0.0003125 0.0000625h10.344" transform="matrix(1 0 0 -1 373.7 134.59)"/>
    <g id="g5550">
     <use id="use5552" y="142.909" x="374.642" xlink:href="#textext-e76a03b6-1"/>
    </g>
    <g id="g5554">
     <use id="use5556" y="142.909" x="379.762" xlink:href="#textext-e76a03b6-6"/>
    </g>
    <g id="g5558">
     <use id="use5560" y="136.828" x="387.793" xlink:href="#textext-e76a03b6-2"/>
    </g>
    <g id="g5562">
     <use id="use5564" y="136.828" x="397.52" xlink:href="#textext-e76a03b6-7"/>
    </g>
    <g id="g5566">
     <use id="use5568" y="136.828" x="404.871" xlink:href="#textext-e76a03b6-3"/>
    </g>
    <g id="g5570">
     <use id="use5572" y="136.828" x="414.087" xlink:href="#textext-e76a03b6-8"/>
    </g>
   </g>
  </g>
  <g id="g6276"  transform="matrix(5.941 0 0 5.941 -957.33 -354.7)">
   <g id="textext-2d32e2e4-2">
    <g id="g6289">
     <use id="use6291" y="136.259" x="223.432" xlink:href="#textext-2d32e2e4-1"/>
    </g>
   </g>
  </g>
  <g id="g6964" transform="matrix(4.1092 0 0 4.1092 -953.67 -83.724)" >
   <g id="textext-eb90a123-10">
    <g id="g7001">
     <use id="use7003" y="131.029" x="373.695" xlink:href="#textext-eb90a123-1"/>
    </g>
    <g id="g7005">
     <use id="use7007" y="131.029" x="378.814" xlink:href="#textext-eb90a123-4"/>
    </g>
    <path id="path7009" style="stroke:#000;stroke-miterlimit:10;stroke-width:.379;fill:none" d="m0.0003125 0.0000625h10.344" transform="matrix(1 0 0 -1 373.7 134.59)"/>
    <g id="g7011">
     <use id="use7013" y="142.909" x="374.642" xlink:href="#textext-eb90a123-1"/>
    </g>
    <g id="g7015">
     <use id="use7017" y="142.909" x="379.762" xlink:href="#textext-eb90a123-5"/>
    </g>
    <g id="g7019">
     <use id="use7021" y="136.828" x="387.793" xlink:href="#textext-eb90a123-2"/>
    </g>
    <g id="g7023">
     <use id="use7025" y="136.828" x="397.52" xlink:href="#textext-eb90a123-6"/>
    </g>
    <g id="g7027">
     <use id="use7029" y="136.828" x="404.871" xlink:href="#textext-eb90a123-9"/>
    </g>
    <g id="g7031">
     <use id="use7033" y="136.828" x="414.087" xlink:href="#textext-eb90a123-7"/>
    </g>
   </g>
  </g>
  <g id="g7698"  transform="matrix(4.2695 0 0 4.2695 -1293.2 23.535)">
   <g id="textext-23042e65-11">
    <g id="g7738">
     <use id="use7740" y="134.765" x="375.193" xlink:href="#textext-23042e65-1"/>
     <use id="use7742" y="134.765" x="380.312814" xlink:href="#textext-23042e65-2"/>
     <use id="use7744" y="134.765" x="384.920647" xlink:href="#textext-23042e65-3"/>
     <use id="use7746" y="134.765" x="392.600369" xlink:href="#textext-23042e65-4"/>
     <use id="use7748" y="134.765" x="397.208202" xlink:href="#textext-23042e65-5"/>
     <use id="use7750" y="134.765" x="399.768109" xlink:href="#textext-23042e65-6"/>
    </g>
    <g id="g7752">
     <use id="use7754" y="134.765" x="407.954432" xlink:href="#textext-23042e65-2"/>
     <use id="use7756" y="134.765" x="412.562265" xlink:href="#textext-23042e65-7"/>
    </g>
    <g id="g7758">
     <use id="use7760" y="143.794" x="372.114" xlink:href="#textext-23042e65-1"/>
     <use id="use7762" y="143.794" x="377.233814" xlink:href="#textext-23042e65-8"/>
     <use id="use7764" y="143.794" x="381.333252" xlink:href="#textext-23042e65-9"/>
    </g>
    <g id="g7766">
     <use id="use7768" y="143.794" x="386.713092" xlink:href="#textext-23042e65-8"/>
    </g>
    <g id="g7770">
     <use id="use7772" y="143.794" x="390.803564" xlink:href="#textext-23042e65-6"/>
     <use id="use7774" y="143.794" x="395.923379" xlink:href="#textext-23042e65-1"/>
     <use id="use7776" y="143.794" x="401.043193" xlink:href="#textext-23042e65-8"/>
     <use id="use7778" y="143.794" x="405.142631" xlink:href="#textext-23042e65-6"/>
     <use id="use7780" y="143.794" x="410.262445" xlink:href="#textext-23042e65-10"/>
     <use id="use7782" y="143.794" x="414.358297" xlink:href="#textext-23042e65-8"/>
    </g>
   </g>
  </g>
 </g>
</svg>
